<?xml version="1.0" encoding="iso-8859-1"?>
<!-- Generator: Adobe Illustrator 19.0.0, SVG Export Plug-In . SVG Version: 6.00 Build 0)  -->
<svg version="1.1" id="Capa_1" xmlns="http://www.w3.org/2000/svg" xmlns:xlink="http://www.w3.org/1999/xlink" x="0px" y="0px"
	 viewBox="0 0 490 490" style="enable-background:new 0 0 490 490;" xml:space="preserve">
<g>
	<path d="M155.863,317.827v78.982h178.275v-78.982c0-28.416,10.335-46.259,23.421-68.85c16.721-28.85,35.655-61.551,35.655-122.13
		c0-37.368-11.815-67.451-35.132-89.414C316.744-1.505,253.719-0.278,245,0.103c-8.734-0.381-71.744-1.608-113.082,37.33
		c-23.316,21.963-35.131,52.047-35.131,89.414c0,60.579,18.934,93.28,35.655,122.13
		C145.528,271.568,155.863,289.411,155.863,317.827z M152.812,59.837c33.785-31.946,90.753-29.134,91.306-29.112L245,30.77
		l0.882-0.045c0.583-0.06,57.521-2.834,91.306,29.112c16.855,15.936,25.395,38.482,25.395,67.01
		c0,52.353-16.033,80.022-31.527,106.778c-13.55,23.384-27.549,47.56-27.549,84.202v48.353H186.492v-48.353
		c0-36.642-13.999-60.818-27.549-84.202c-15.494-26.756-31.527-54.425-31.527-106.778C127.416,98.319,135.956,75.773,152.812,59.837
		z"/>
	<path d="M170.714,445.147l-10.095,11.516C178.192,472.053,210.915,490,248.186,490c26.143,0,54.514-8.824,81.465-33.576
		l-20.729-22.554c-61.275,56.264-125.451,2.064-128.158-0.269L170.714,445.147z"/>
	<polygon points="223.953,286.144 293.794,138.403 249.772,138.403 249.603,86.197 212.551,171.982 249.603,171.982 	"/>
</g>
<g>
</g>
<g>
</g>
<g>
</g>
<g>
</g>
<g>
</g>
<g>
</g>
<g>
</g>
<g>
</g>
<g>
</g>
<g>
</g>
<g>
</g>
<g>
</g>
<g>
</g>
<g>
</g>
<g>
</g>
</svg>
